<svg width="48" height="48" viewBox="0 0 48 48" fill="none" xmlns="http://www.w3.org/2000/svg">
<g clip-path="url(#clip0_1_2)">
<circle cx="1.5" cy="1.5" r="1.5" fill="white"/>
<circle cx="10.5" cy="1.5" r="1.5" fill="white"/>
<circle cx="19.5" cy="1.5" r="1.5" fill="white"/>
<circle cx="28.5" cy="1.5" r="1.5" fill="white"/>
<circle cx="37.5" cy="1.5" r="1.5" fill="white"/>
<circle cx="46.5" cy="1.5" r="1.5" fill="white"/>
<circle cx="1.5" cy="10.5" r="1.5" fill="white"/>
<circle cx="10.5" cy="10.5" r="1.5" fill="white"/>
<circle cx="19.5" cy="10.5" r="1.5" fill="white"/>
<circle cx="28.5" cy="10.5" r="1.5" fill="white"/>
<circle cx="37.5" cy="10.5" r="1.5" fill="white"/>
<circle cx="46.5" cy="10.5" r="1.5" fill="white"/>
<circle cx="1.5" cy="19.5" r="1.5" fill="white"/>
<circle cx="10.5" cy="19.5" r="1.5" fill="white"/>
<circle cx="19.5" cy="19.5" r="1.5" fill="white"/>
<circle cx="28.5" cy="19.5" r="1.5" fill="white"/>
<circle cx="37.5" cy="19.5" r="1.5" fill="white"/>
<circle cx="46.5" cy="19.5" r="1.5" fill="white"/>
<circle cx="1.5" cy="28.5" r="1.5" fill="white"/>
<circle cx="10.5" cy="28.5" r="1.5" fill="white"/>
<circle cx="19.5" cy="28.5" r="1.5" fill="white"/>
<circle cx="28.5" cy="28.5" r="1.5" fill="white"/>
<circle cx="37.5" cy="28.5" r="1.5" fill="white"/>
<circle cx="46.5" cy="28.5" r="1.5" fill="white"/>
<circle cx="1.5" cy="37.5" r="1.5" fill="white"/>
<circle cx="10.5" cy="37.5" r="1.5" fill="white"/>
<circle cx="19.5" cy="37.5" r="1.5" fill="white"/>
<circle cx="28.5" cy="37.5" r="1.5" fill="white"/>
<circle cx="37.5" cy="37.5" r="1.5" fill="white"/>
<circle cx="46.5" cy="37.5" r="1.5" fill="white"/>
<circle cx="1.5" cy="46.5" r="1.5" fill="white"/>
<circle cx="10.5" cy="46.5" r="1.5" fill="white"/>
<circle cx="19.5" cy="46.5" r="1.5" fill="white"/>
<circle cx="28.5" cy="46.5" r="1.5" fill="white"/>
<circle cx="37.5" cy="46.5" r="1.5" fill="white"/>
<circle cx="46.5" cy="46.5" r="1.5" fill="white"/>
</g>
<defs>
<clipPath id="clip0_1_2">
<rect width="48" height="48" fill="white"/>
</clipPath>
</defs>
</svg>
